<svg width="27" height="13" viewBox="0 0 27 13" fill="none" xmlns="http://www.w3.org/2000/svg">
<path opacity="0.35" d="M2.66699 0.5H22.333C23.5296 0.5 24.5 1.47038 24.5 2.66699V10.333C24.5 11.5296 23.5296 12.5 22.333 12.5H2.66699C1.47038 12.5 0.5 11.5296 0.5 10.333V2.66699L0.510742 2.44531C0.621597 1.35265 1.54509 0.5 2.66699 0.5Z" stroke="white"/>
<path opacity="0.4" d="M25.65 5V9C26.4548 8.66122 26.9781 7.87313 26.9781 7C26.9781 6.12687 26.4548 5.33878 25.65 5Z" fill="white"/>
<path d="M2.30005 3.66634C2.30005 2.92996 2.897 2.33301 3.63338 2.33301H21.1667C21.903 2.33301 22.5 2.92996 22.5 3.66634V9.32967C22.5 10.0661 21.903 10.663 21.1667 10.663H3.63338C2.897 10.663 2.30005 10.0661 2.30005 9.32967V3.66634Z" fill="white"/>
</svg>
