<svg aria-hidden="true" style="position: absolute; width: 0; height: 0; overflow: hidden;" version="1.1" xmlns="http://www.w3.org/2000/svg" xmlns:xlink="http://www.w3.org/1999/xlink">
<defs>
<symbol id="icon-arrow-left" viewBox="0 0 33 32">
<path stroke-linejoin="round" stroke-linecap="round" stroke-miterlimit="4" stroke-width="2.6667" d="M7.5 16h18.667M7.5 16l8 8M7.5 16l8-8"></path>
</symbol>
<symbol id="icon-gender-female" viewBox="0 0 32 32">
<path stroke-linejoin="round" stroke-linecap="round" stroke-miterlimit="4" stroke-width="2.5098" d="M15.294 18.509c-1.664 0-3.26-0.661-4.437-1.838s-1.838-2.773-1.838-4.437c0-1.664 0.661-3.26 1.838-4.437s2.773-1.838 4.437-1.838c1.664 0 3.26 0.661 4.437 1.838s1.838 2.773 1.838 4.437c0 1.664-0.661 3.26-1.838 4.437s-2.773 1.838-4.437 1.838zM15.294 18.509v8.784M11.529 23.529h7.529"></path>
</symbol>
<symbol id="icon-gender-male" viewBox="0 0 32 32">
<path stroke-linejoin="round" stroke-linecap="round" stroke-miterlimit="4" stroke-width="2.5098" d="M25.49 7.216l-6.776 6.776M25.49 7.216h-6.274M25.49 7.216v6.275M7.922 18.51c0 1.664 0.661 3.26 1.838 4.437s2.773 1.838 4.437 1.838c1.664 0 3.26-0.661 4.437-1.838s1.838-2.773 1.838-4.437c0-1.664-0.661-3.26-1.838-4.437s-2.773-1.838-4.437-1.838c-1.664 0-3.26 0.661-4.437 1.838s-1.838 2.773-1.838 4.437z"></path>
</symbol>
<symbol id="icon-heart-filled" viewBox="0 0 33 32">
<path d="M9.472 4.099c1.18-0.201 2.39-0.135 3.541 0.194s2.214 0.912 3.109 1.706l0.049 0.044 0.045-0.040c0.855-0.75 1.86-1.31 2.948-1.641s2.235-0.426 3.362-0.279l0.328 0.048c1.422 0.245 2.751 0.871 3.846 1.81s1.916 2.157 2.376 3.524c0.46 1.368 0.541 2.834 0.235 4.244s-0.987 2.711-1.972 3.765l-0.24 0.247-0.064 0.055-9.933 9.839c-0.229 0.227-0.533 0.363-0.855 0.383s-0.64-0.077-0.896-0.274l-0.125-0.109-9.991-9.896c-1.058-1.030-1.811-2.332-2.175-3.764s-0.324-2.935 0.114-4.345 1.259-2.671 2.37-3.644c1.111-0.973 2.47-1.619 3.925-1.867z"></path>
</symbol>
<symbol id="icon-map-pin" viewBox="0 0 32 32">
<path stroke-linejoin="round" stroke-linecap="round" stroke-miterlimit="4" stroke-width="2.5098" d="M11.529 14.745c0 0.998 0.397 1.956 1.103 2.662s1.664 1.103 2.662 1.103c0.998 0 1.956-0.397 2.662-1.103s1.103-1.664 1.103-2.662c0-0.998-0.397-1.956-1.103-2.662s-1.664-1.103-2.662-1.103c-0.998 0-1.956 0.397-2.662 1.103s-1.103 1.664-1.103 2.662z"></path>
<path stroke-linejoin="round" stroke-linecap="round" stroke-miterlimit="4" stroke-width="2.5098" d="M22.393 21.844l-5.324 5.324c-0.471 0.47-1.109 0.734-1.774 0.734s-1.303-0.264-1.774-0.734l-5.326-5.324c-1.404-1.404-2.36-3.193-2.747-5.14s-0.188-3.966 0.571-5.8c0.76-1.834 2.047-3.402 3.698-4.505s3.592-1.692 5.577-1.692c1.986 0 3.927 0.589 5.577 1.692s2.938 2.671 3.698 4.505c0.76 1.834 0.959 3.853 0.571 5.8s-1.343 3.736-2.747 5.14z"></path>
</symbol>
<symbol id="icon-message" viewBox="0 0 33 32">
<path stroke-linejoin="round" stroke-linecap="round" stroke-miterlimit="4" stroke-width="2.6667" d="M10.833 12h10.667M10.833 17.333h8M24.167 5.333c1.061 0 2.078 0.421 2.828 1.172s1.172 1.768 1.172 2.828v10.667c0 1.061-0.421 2.078-1.172 2.828s-1.768 1.172-2.828 1.172h-6.667l-6.667 4v-4h-2.667c-1.061 0-2.078-0.421-2.828-1.172s-1.172-1.768-1.172-2.828v-10.667c0-1.061 0.421-2.078 1.172-2.828s1.768-1.172 2.828-1.172h16z"></path>
</symbol>
<symbol id="icon-plus" viewBox="0 0 33 32">
<path stroke-linejoin="round" stroke-linecap="round" stroke-miterlimit="4" stroke-width="2.6667" d="M16.833 6.667v18.667M7.5 16h18.667"></path>
</symbol>
<symbol id="icon-settings" viewBox="0 0 33 32">
<path stroke-linejoin="round" stroke-linecap="round" stroke-miterlimit="4" stroke-width="2.6667" d="M14.6 5.756c0.568-2.341 3.899-2.341 4.467 0 0.085 0.352 0.252 0.678 0.488 0.953s0.532 0.49 0.867 0.629c0.334 0.139 0.697 0.196 1.057 0.168s0.71-0.141 1.019-0.329c2.057-1.253 4.413 1.101 3.16 3.16-0.188 0.309-0.301 0.658-0.329 1.018s0.030 0.723 0.168 1.057c0.138 0.334 0.354 0.631 0.628 0.866s0.601 0.402 0.952 0.488c2.341 0.568 2.341 3.899 0 4.467-0.352 0.085-0.678 0.252-0.953 0.488s-0.491 0.532-0.629 0.867c-0.139 0.334-0.196 0.697-0.168 1.057s0.141 0.71 0.329 1.019c1.253 2.057-1.101 4.413-3.16 3.16-0.309-0.188-0.658-0.301-1.018-0.329s-0.723 0.030-1.057 0.168c-0.334 0.138-0.631 0.354-0.866 0.628s-0.402 0.601-0.488 0.952c-0.568 2.341-3.899 2.341-4.467 0-0.085-0.352-0.252-0.678-0.488-0.953s-0.532-0.491-0.867-0.629c-0.334-0.139-0.697-0.196-1.058-0.168s-0.71 0.141-1.019 0.329c-2.057 1.253-4.413-1.101-3.16-3.16 0.188-0.309 0.301-0.658 0.329-1.018s-0.030-0.723-0.168-1.057-0.354-0.631-0.628-0.866c-0.275-0.235-0.601-0.402-0.952-0.488-2.341-0.568-2.341-3.899 0-4.467 0.352-0.085 0.678-0.252 0.953-0.488s0.49-0.532 0.629-0.867c0.139-0.334 0.196-0.697 0.168-1.058s-0.141-0.71-0.329-1.019c-1.253-2.057 1.101-4.413 3.16-3.16 1.333 0.811 3.061 0.093 3.429-1.42z"></path>
<path stroke-linejoin="round" stroke-linecap="round" stroke-miterlimit="4" stroke-width="2.6667" d="M12.833 16c0 1.061 0.421 2.078 1.172 2.828s1.768 1.172 2.828 1.172 2.078-0.421 2.828-1.172c0.75-0.75 1.172-1.768 1.172-2.828s-0.421-2.078-1.172-2.828c-0.75-0.75-1.768-1.172-2.828-1.172s-2.078 0.421-2.828 1.172c-0.75 0.75-1.172 1.768-1.172 2.828z"></path>
</symbol>
<symbol id="icon-share" viewBox="0 0 33 32">
<path stroke-linejoin="round" stroke-linecap="round" stroke-miterlimit="4" stroke-width="2.6667" d="M11.767 14.267l8.8-4.533M11.767 17.733l8.8 4.533M4.167 16c0 1.061 0.421 2.078 1.172 2.828s1.768 1.172 2.828 1.172c1.061 0 2.078-0.421 2.828-1.172s1.172-1.768 1.172-2.828c0-1.061-0.421-2.078-1.172-2.828s-1.768-1.172-2.828-1.172c-1.061 0-2.078 0.421-2.828 1.172s-1.172 1.768-1.172 2.828zM20.167 8c0 1.061 0.421 2.078 1.172 2.828s1.768 1.172 2.828 1.172c1.061 0 2.078-0.421 2.828-1.172s1.172-1.768 1.172-2.828c0-1.061-0.421-2.078-1.172-2.828s-1.768-1.172-2.828-1.172c-1.061 0-2.078 0.421-2.828 1.172s-1.172 1.768-1.172 2.828zM20.167 24c0 1.061 0.421 2.078 1.172 2.828s1.768 1.172 2.828 1.172c1.061 0 2.078-0.421 2.828-1.172s1.172-1.768 1.172-2.828c0-1.061-0.421-2.078-1.172-2.828s-1.768-1.172-2.828-1.172c-1.061 0-2.078 0.421-2.828 1.172s-1.172 1.768-1.172 2.828z"></path>
</symbol>
</defs>
</svg>
