<svg aria-hidden="true" style="position: absolute; width: 0; height: 0; overflow: hidden;" version="1.1" xmlns="http://www.w3.org/2000/svg" xmlns:xlink="http://www.w3.org/1999/xlink">
<defs>
<symbol id="icon-btr" viewBox="0 0 66 32">
<path stroke-linejoin="miter" stroke-linecap="butt" stroke-miterlimit="4" stroke-width="2.4615" d="M6.565 1.231h48.409c2.945 0 5.334 2.389 5.334 5.334v18.87c0 2.945-2.389 5.334-5.334 5.334h-48.409c-2.946 0-5.334-2.389-5.334-5.334v-18.87l0.026-0.546c0.273-2.69 2.546-4.788 5.308-4.788z"></path>
<path d="M63.138 12.308v9.846c1.981-0.834 3.269-2.774 3.269-4.923s-1.288-4.089-3.269-4.923z"></path>
<path d="M5.662 9.025c0-1.813 1.469-3.282 3.282-3.282h43.159c1.812 0 3.282 1.469 3.282 3.282v13.941c0 1.813-1.47 3.282-3.282 3.282h-43.159c-1.813 0-3.282-1.469-3.282-3.282v-13.941z"></path>
</symbol>
<symbol id="icon-net" viewBox="0 0 52 32">
<path d="M49.455 1.455h-2.909c-1.607 0-2.909 1.221-2.909 2.727v23.636c0 1.506 1.302 2.727 2.909 2.727h2.909c1.607 0 2.909-1.221 2.909-2.727v-23.636c0-1.506-1.302-2.727-2.909-2.727zM32 7.273h2.909c1.607 0 2.909 1.25 2.909 2.793v17.687c0 1.542-1.302 2.793-2.909 2.793h-2.909c-1.607 0-2.909-1.25-2.909-2.793v-17.687c0-1.542 1.302-2.793 2.909-2.793zM20.364 13.091h-2.909c-1.607 0-2.909 1.302-2.909 2.909v11.636c0 1.607 1.302 2.909 2.909 2.909h2.909c1.607 0 2.909-1.302 2.909-2.909v-11.636c0-1.607-1.302-2.909-2.909-2.909zM5.818 18.909h-2.909c-1.607 0-2.909 1.302-2.909 2.909v5.818c0 1.607 1.302 2.909 2.909 2.909h2.909c1.607 0 2.909-1.302 2.909-2.909v-5.818c0-1.607-1.302-2.909-2.909-2.909z"></path>
</symbol>
<symbol id="icon-wi-fi" viewBox="0 0 47 32">
<path d="M22.216 6.625c6.446 0 12.646 2.477 17.318 6.919 0.352 0.343 0.914 0.339 1.261-0.010l3.363-3.394c0.175-0.177 0.273-0.416 0.272-0.665s-0.102-0.487-0.28-0.662c-12.262-11.751-31.607-11.751-43.869 0-0.178 0.174-0.278 0.412-0.28 0.661s0.096 0.488 0.271 0.665l3.364 3.394c0.346 0.349 0.909 0.353 1.261 0.010 4.672-4.442 10.873-6.919 17.32-6.919zM22.215 17.667c3.542-0 6.957 1.316 9.582 3.694 0.355 0.337 0.915 0.33 1.261-0.017l3.359-3.394c0.177-0.178 0.275-0.42 0.273-0.67s-0.106-0.49-0.286-0.665c-7.995-7.437-20.376-7.437-28.371 0-0.181 0.174-0.284 0.414-0.286 0.665s0.096 0.493 0.273 0.67l3.358 3.394c0.346 0.347 0.905 0.354 1.261 0.017 2.624-2.376 6.036-3.692 9.576-3.694zM28.944 25.095c0.005 0.252-0.094 0.494-0.273 0.671l-5.81 5.864c-0.17 0.172-0.403 0.269-0.645 0.269s-0.475-0.097-0.645-0.269l-5.811-5.864c-0.18-0.176-0.278-0.419-0.273-0.671s0.114-0.49 0.301-0.659c3.711-3.139 9.145-3.139 12.856 0 0.187 0.169 0.295 0.407 0.301 0.659z"></path>
</symbol>
<symbol id="icon-profile" viewBox="0 0 18 24">
<path fill="none" stroke="#a4acb9" style="stroke: var(--color1, #a4acb9)" stroke-linejoin="round" stroke-linecap="round" stroke-miterlimit="4" stroke-width="2.4" d="M1.44 22.8v-2.4c0-1.273 0.506-2.494 1.406-3.394s2.121-1.406 3.394-1.406h4.8c1.273 0 2.494 0.506 3.394 1.406s1.406 2.121 1.406 3.394v2.4M3.84 6c0 1.273 0.506 2.494 1.406 3.394s2.121 1.406 3.394 1.406c1.273 0 2.494-0.506 3.394-1.406s1.406-2.121 1.406-3.394-0.506-2.494-1.406-3.394c-0.9-0.9-2.121-1.406-3.394-1.406s-2.494 0.506-3.394 1.406c-0.9 0.9-1.406 2.121-1.406 3.394z"></path>
</symbol>
<symbol id="icon-saved" viewBox="0 0 17 24">
<path fill="none" stroke="#a4acb9" style="stroke: var(--color1, #a4acb9)" stroke-linejoin="round" stroke-linecap="round" stroke-miterlimit="4" stroke-width="2.6667" d="M4.8 1.333h8c0.707 0 1.385 0.281 1.886 0.781s0.781 1.178 0.781 1.886v18.667l-6.667-4-6.667 4v-18.667c0-0.707 0.281-1.386 0.781-1.886s1.178-0.781 1.886-0.781z"></path>
</symbol>
<symbol id="icon-message" viewBox="0 0 25 24">
<path fill="none" stroke="#a4acb9" style="stroke: var(--color1, #a4acb9)" stroke-linejoin="round" stroke-linecap="round" stroke-miterlimit="4" stroke-width="2.5263" d="M7.579 7.579h10.105M7.579 12.632h7.579M8.842 18.947h-3.789c-1.005 0-1.969-0.399-2.68-1.11s-1.11-1.675-1.11-2.68v-10.105c0-1.005 0.399-1.969 1.11-2.68s1.675-1.11 2.68-1.11h15.158c1.005 0 1.969 0.399 2.68 1.11s1.11 1.675 1.11 2.68v10.105c0 1.005-0.399 1.969-1.11 2.68s-1.675 1.11-2.68 1.11h-3.789l-3.789 3.789-3.789-3.789z"></path>
</symbol>
<symbol id="icon-market" viewBox="0 0 27 24">
<path fill="none" stroke="#a4acb9" style="stroke: var(--color1, #a4acb9)" stroke-linejoin="round" stroke-linecap="round" stroke-miterlimit="4" stroke-width="2.5263" d="M22.611 13.354l-9.474 9.383-9.474-9.383c-0.625-0.608-1.117-1.339-1.446-2.147s-0.486-1.675-0.463-2.546c0.023-0.872 0.226-1.729 0.597-2.518s0.901-1.493 1.557-2.067c0.656-0.574 1.424-1.007 2.255-1.27s1.708-0.351 2.575-0.259c0.867 0.092 1.705 0.363 2.463 0.796s1.416 1.017 1.937 1.717c0.522-0.695 1.182-1.274 1.939-1.702s1.593-0.695 2.458-0.785c0.865-0.090 1.738 0 2.566 0.264s1.593 0.695 2.247 1.268c0.654 0.573 1.182 1.274 1.552 2.061s0.574 1.641 0.599 2.51c0.025 0.869-0.13 1.733-0.455 2.54s-0.812 1.537-1.433 2.146M13.137 5.053l-4.16 4.16c-0.237 0.237-0.37 0.558-0.37 0.893s0.133 0.656 0.37 0.893l0.686 0.686c0.872 0.872 2.286 0.872 3.158 0l1.263-1.263c0.754-0.754 1.776-1.177 2.842-1.177s2.088 0.423 2.842 1.177l2.842 2.842M13.768 17.053l2.526 2.526M16.926 13.895l2.526 2.526"></path>
</symbol>
<symbol id="icon-home" viewBox="0 0 25 24">
<path fill="none" stroke="#329da9" style="stroke: var(--color2, #329da9)" stroke-linejoin="round" stroke-linecap="round" stroke-miterlimit="4" stroke-width="2.4" d="M9.36 22.8v-7.2c0-0.636 0.253-1.247 0.703-1.697s1.061-0.703 1.697-0.703h2.4c0.636 0 1.247 0.253 1.697 0.703s0.703 1.061 0.703 1.697v7.2M4.56 12h-2.4l10.8-10.8 10.8 10.8h-2.4v8.4c0 0.636-0.253 1.247-0.703 1.697s-1.061 0.703-1.697 0.703h-12c-0.637 0-1.247-0.253-1.697-0.703s-0.703-1.061-0.703-1.697v-8.4z"></path>
</symbol>
<symbol id="icon-share" viewBox="0 0 24 24">
<path stroke-linejoin="round" stroke-linecap="round" stroke-miterlimit="4" stroke-width="2.4" d="M8.040 10.44l7.92-4.080M8.040 13.56l7.92 4.080M1.2 12c0 0.955 0.379 1.87 1.054 2.546s1.591 1.054 2.546 1.054c0.955 0 1.87-0.379 2.546-1.054s1.054-1.591 1.054-2.546c0-0.955-0.379-1.87-1.054-2.546s-1.591-1.054-2.546-1.054c-0.955 0-1.87 0.379-2.546 1.054s-1.054 1.591-1.054 2.546zM15.6 4.8c0 0.955 0.379 1.87 1.054 2.546s1.591 1.054 2.546 1.054c0.955 0 1.87-0.379 2.546-1.054s1.054-1.591 1.054-2.546c0-0.955-0.379-1.87-1.054-2.546s-1.591-1.054-2.546-1.054c-0.955 0-1.87 0.379-2.546 1.054s-1.054 1.591-1.054 2.546zM15.6 19.2c0 0.955 0.379 1.87 1.054 2.546s1.591 1.054 2.546 1.054c0.955 0 1.87-0.379 2.546-1.054s1.054-1.591 1.054-2.546c0-0.955-0.379-1.87-1.054-2.546s-1.591-1.054-2.546-1.054c-0.955 0-1.87 0.379-2.546 1.054s-1.054 1.591-1.054 2.546z"></path>
</symbol>
<symbol id="icon-comment" viewBox="0 0 25 24">
<path stroke-linejoin="round" stroke-linecap="round" stroke-miterlimit="4" stroke-width="2.5263" d="M7.579 7.579h10.105M7.579 12.632h7.579M20.211 1.263c1.005 0 1.969 0.399 2.68 1.11s1.11 1.675 1.11 2.68v10.105c0 1.005-0.399 1.969-1.11 2.68s-1.675 1.11-2.68 1.11h-6.316l-6.316 3.789v-3.789h-2.526c-1.005 0-1.969-0.399-2.68-1.11s-1.11-1.675-1.11-2.68v-10.105c0-1.005 0.399-1.969 1.11-2.68s1.675-1.11 2.68-1.11h15.158z"></path>
</symbol>
<symbol id="icon-likes" viewBox="0 0 27 24">
<path fill="#df1c41" style="fill: var(--color1, #df1c41)" d="M7.552 1.357c1.118-0.19 2.264-0.128 3.355 0.184s2.097 0.864 2.946 1.616l0.047 0.042 0.043-0.038c0.81-0.711 1.762-1.241 2.793-1.554s2.117-0.404 3.185-0.265l0.311 0.045c1.347 0.233 2.606 0.825 3.644 1.715s1.815 2.043 2.251 3.339c0.435 1.296 0.512 2.685 0.223 4.021s-0.935 2.568-1.868 3.567l-0.227 0.234-0.061 0.052-9.411 9.321c-0.217 0.215-0.505 0.344-0.81 0.363s-0.606-0.073-0.849-0.259l-0.119-0.104-9.465-9.375c-1.003-0.976-1.716-2.21-2.060-3.566s-0.307-2.781 0.108-4.117c0.415-1.336 1.192-2.531 2.245-3.452s2.34-1.534 3.719-1.769z"></path>
</symbol>
<symbol id="icon-map-pin" viewBox="0 0 24 24">
<path fill="none" stroke="#329da9" style="stroke: var(--color2, #329da9)" stroke-linejoin="round" stroke-linecap="round" stroke-miterlimit="4" stroke-width="1.8823" d="M9.176 11.059c0 0.749 0.297 1.467 0.827 1.997s1.248 0.827 1.997 0.827c0.749 0 1.467-0.297 1.997-0.827s0.827-1.248 0.827-1.997-0.297-1.467-0.827-1.997c-0.53-0.529-1.248-0.827-1.997-0.827s-1.467 0.297-1.997 0.827c-0.53 0.53-0.827 1.248-0.827 1.997z"></path>
<path fill="none" stroke="#329da9" style="stroke: var(--color2, #329da9)" stroke-linejoin="round" stroke-linecap="round" stroke-miterlimit="4" stroke-width="1.8823" d="M17.324 16.383l-3.993 3.993c-0.353 0.353-0.831 0.551-1.33 0.551s-0.977-0.198-1.33-0.551l-3.994-3.993c-1.053-1.053-1.77-2.395-2.061-3.855s-0.141-2.974 0.429-4.35c0.57-1.376 1.535-2.552 2.773-3.379s2.694-1.269 4.183-1.269c1.489 0 2.945 0.442 4.183 1.269s2.203 2.003 2.773 3.379c0.57 1.376 0.719 2.89 0.429 4.35s-1.008 2.802-2.061 3.855z"></path>
</symbol>
<symbol id="icon-posts" viewBox="0 0 25 24">
<path stroke-linejoin="round" stroke-linecap="round" stroke-miterlimit="4" stroke-width="2.8235" d="M9.029 4.235h-4.235c-0.749 0-1.467 0.297-1.997 0.827s-0.827 1.248-0.827 1.997v12.706c0 0.749 0.297 1.467 0.827 1.997s1.248 0.827 1.997 0.827h12.706c0.749 0 1.467-0.297 1.997-0.827s0.827-1.248 0.827-1.997v-4.235M14.677 5.647c0 1.123 0.446 2.201 1.241 2.995s1.871 1.241 2.995 1.241c1.123 0 2.201-0.446 2.995-1.241s1.241-1.872 1.241-2.995c0-1.123-0.446-2.201-1.241-2.995s-1.872-1.24-2.995-1.24c-1.123 0-2.201 0.446-2.995 1.24s-1.241 1.872-1.241 2.995z"></path>
</symbol>
<symbol id="icon-plus" viewBox="0 0 26 24">
<path stroke-linejoin="round" stroke-linecap="round" stroke-miterlimit="4" stroke-width="3" d="M12.594 1.5v21M2.094 12h21"></path>
</symbol>
</defs>
</svg>
