<svg aria-hidden="true" style="position: absolute; width: 0; height: 0; overflow: hidden;" version="1.1" xmlns="http://www.w3.org/2000/svg" xmlns:xlink="http://www.w3.org/1999/xlink">
<defs>
<symbol id="icon-btr" viewBox="0 0 66 32">
<path stroke-linejoin="miter" stroke-linecap="butt" stroke-miterlimit="4" stroke-width="2.4615" d="M6.565 1.231h48.409c2.945 0 5.334 2.389 5.334 5.334v18.87c0 2.945-2.389 5.334-5.334 5.334h-48.409c-2.946 0-5.334-2.389-5.334-5.334v-18.87l0.026-0.546c0.273-2.69 2.546-4.788 5.308-4.788z"></path>
<path d="M63.138 12.308v9.846c1.981-0.834 3.269-2.774 3.269-4.923s-1.288-4.089-3.269-4.923z"></path>
<path d="M5.662 9.025c0-1.813 1.469-3.282 3.282-3.282h43.159c1.812 0 3.282 1.469 3.282 3.282v13.941c0 1.813-1.47 3.282-3.282 3.282h-43.159c-1.813 0-3.282-1.469-3.282-3.282v-13.941z"></path>
</symbol>
<symbol id="icon-net" viewBox="0 0 52 32">
<path d="M49.455 1.455h-2.909c-1.607 0-2.909 1.221-2.909 2.727v23.636c0 1.506 1.302 2.727 2.909 2.727h2.909c1.607 0 2.909-1.221 2.909-2.727v-23.636c0-1.506-1.302-2.727-2.909-2.727zM32 7.273h2.909c1.607 0 2.909 1.25 2.909 2.793v17.687c0 1.542-1.302 2.793-2.909 2.793h-2.909c-1.607 0-2.909-1.25-2.909-2.793v-17.687c0-1.542 1.302-2.793 2.909-2.793zM20.364 13.091h-2.909c-1.607 0-2.909 1.302-2.909 2.909v11.636c0 1.607 1.302 2.909 2.909 2.909h2.909c1.607 0 2.909-1.302 2.909-2.909v-11.636c0-1.607-1.302-2.909-2.909-2.909zM5.818 18.909h-2.909c-1.607 0-2.909 1.302-2.909 2.909v5.818c0 1.607 1.302 2.909 2.909 2.909h2.909c1.607 0 2.909-1.302 2.909-2.909v-5.818c0-1.607-1.302-2.909-2.909-2.909z"></path>
</symbol>
<symbol id="icon-wi-fi" viewBox="0 0 47 32">
<path d="M22.216 6.625c6.446 0 12.646 2.477 17.318 6.919 0.352 0.343 0.914 0.339 1.261-0.010l3.363-3.394c0.175-0.177 0.273-0.416 0.272-0.665s-0.102-0.487-0.28-0.662c-12.262-11.751-31.607-11.751-43.869 0-0.178 0.174-0.278 0.412-0.28 0.661s0.096 0.488 0.271 0.665l3.364 3.394c0.346 0.349 0.909 0.353 1.261 0.010 4.672-4.442 10.873-6.919 17.32-6.919zM22.215 17.667c3.542-0 6.957 1.316 9.582 3.694 0.355 0.337 0.915 0.33 1.261-0.017l3.359-3.394c0.177-0.178 0.275-0.42 0.273-0.67s-0.106-0.49-0.286-0.665c-7.995-7.437-20.376-7.437-28.371 0-0.181 0.174-0.284 0.414-0.286 0.665s0.096 0.493 0.273 0.67l3.358 3.394c0.346 0.347 0.905 0.354 1.261 0.017 2.624-2.376 6.036-3.692 9.576-3.694zM28.944 25.095c0.005 0.252-0.094 0.494-0.273 0.671l-5.81 5.864c-0.17 0.172-0.403 0.269-0.645 0.269s-0.475-0.097-0.645-0.269l-5.811-5.864c-0.18-0.176-0.278-0.419-0.273-0.671s0.114-0.49 0.301-0.659c3.711-3.139 9.145-3.139 12.856 0 0.187 0.169 0.295 0.407 0.301 0.659z"></path>
</symbol>
</defs>
</svg>
