<svg width="92" height="95" viewBox="0 0 92 95" fill="none" xmlns="http://www.w3.org/2000/svg">
<g clip-path="url(#clip0_3873_8717)">
<path d="M29.2467 3.87667C37.895 0.225394 47.6306 -0.931673 56.8746 0.769507C61.8982 1.89196 66.9281 3.69154 71.0789 6.7987C64.6389 3.74949 57.684 1.51003 50.4925 1.5217C40.0575 1.1281 29.5416 4.55963 21.3095 10.9766C13.9442 16.6588 8.39448 24.6611 5.68294 33.566C2.46275 43.9003 3.11595 55.357 7.39427 65.2922C14.1292 81.3663 30.7151 92.7308 48.1571 92.968C59.0892 93.3846 70.0966 89.6407 78.5254 82.6742C83.1444 78.8958 86.8387 74.1454 89.8273 69.0072C86.5784 78.2074 78.9532 85.2781 70.4719 89.722C53.7415 98.471 32.039 96.1565 17.4648 84.1732C9.03603 77.4031 3.10469 67.6129 0.948045 57.0181C-0.936588 47.7596 -0.0117581 37.9286 3.72292 29.2434C8.51533 17.9026 17.9331 8.6675 29.2467 3.87667Z" fill="white"/>
<path d="M37.4455 6.94648C47.1403 3.87976 57.9511 4.43516 67.2297 8.62432C76.0113 12.507 83.3648 19.4852 87.7065 28.0486C92.8517 37.9664 93.7999 49.938 90.4122 60.5674C87.8165 68.8707 82.5558 76.3176 75.6126 81.5541C67.1663 87.9769 56.2055 91.0148 45.6664 89.7765C36.0003 88.7812 26.7909 84.2043 20.056 77.2144C10.8003 67.835 6.36031 53.9245 8.55153 40.923C8.69026 41.3629 8.82898 41.8199 8.77108 42.2885C7.63797 52.9872 11.1473 64.0507 18.0959 72.2381C25.6228 81.2877 37.3413 86.721 49.1232 86.4375C52.9387 86.1135 56.5867 84.69 59.9049 82.8325C59.3846 79.0657 59.3787 75.0384 57.4478 71.6477C56.7484 70.1721 56.176 68.6389 55.4187 67.1921C58.2052 67.6841 61.3384 67.7708 63.8245 66.2314C65.2121 64.6345 67.6342 63.1993 66.7556 60.7401C67.5188 60.6534 68.2878 60.5667 69.0564 60.4854C68.4149 60.4333 67.1314 60.3349 66.4894 60.2886C66.8189 59.2183 68.0678 59.5593 68.8944 59.3167C68.2699 59.2879 67.0097 59.2299 66.3795 59.2007C66.8939 58.8939 67.9346 58.2805 68.4549 57.9741C67.4951 58.1825 66.5469 58.4252 65.6163 58.7146C65.9458 56.3826 65.7725 53.8771 64.4486 51.8636C63.0609 49.9714 61.2171 48.49 59.4825 46.9335C60.471 44.7174 60.8122 42.2061 59.9161 39.8916C57.3146 41.8125 55.7711 44.8041 53.1812 46.7597C52.7359 44.9776 52.2505 43.201 51.4586 41.5461C49.227 44.2079 48.1055 47.5636 46.7295 50.7057C46.3825 50.3238 46.0359 49.9477 45.6947 49.5716C42.5612 53.1766 40.7807 57.7765 37.2718 61.0746C35.7629 62.4864 34.549 64.1876 32.9301 65.4894C34.9014 62.7758 37.1968 60.224 38.3991 57.0356C39.85 53.263 41.5672 49.1722 40.6653 45.0639C39.9775 42.1648 36.7515 41.245 34.1382 41.1525C32.2824 40.788 30.0974 41.7833 28.5189 40.4407C26.3685 38.7166 23.1887 38.8146 21.3849 36.5697C19.055 33.9833 19.9281 30.2453 18.7429 27.1961C18.373 26.2817 19.1882 25.547 19.564 24.8065C23.0558 24.7369 26.5593 24.656 30.0161 24.1236C33.8604 23.6549 35.1901 19.2456 38.5549 17.828C41.7347 16.6129 45.2207 16.4854 48.5909 16.3928C48.6025 14.298 48.4809 12.2036 48.4288 10.1147C50.7009 10.6355 51.1574 13.2798 52.8284 14.5932C52.8517 12.6431 51.8398 10.4445 53.0654 8.70872C57.5283 12.5972 58.5864 18.8808 62.581 23.1166C66.5528 28.093 69.6226 33.8386 71.2585 40.0125C72.3454 43.8372 74.2013 47.4594 76.797 50.4856C79.4852 53.7145 82.9887 56.1216 86.5497 58.2856C89.1742 49.6755 88.9084 40.2151 85.6594 31.8076C81.9943 22.1097 74.4037 13.9861 64.9976 9.64643C55.0483 4.97694 43.064 4.64712 33.0339 9.25866C30.5594 10.2598 28.3973 11.8742 25.9403 12.9099C29.1776 9.99957 33.3747 8.36179 37.4447 6.94414L37.4455 6.94648ZM36.6994 23.5818C35.4855 23.8132 36.0578 25.283 37.0289 25.4101C37.9887 25.7687 40.3645 25.4564 39.8038 23.9983C38.8036 23.7031 37.7459 23.4025 36.6994 23.5818Z" fill="white"/>
<path d="M63.9738 56.5893C63.6559 55.7967 63.4651 54.3961 64.3208 53.8987C65.3381 54.3557 64.9394 56.41 63.9738 56.5893Z" fill="white"/>
<path d="M56.9209 47.2156C57.0596 45.497 57.4758 43.7903 58.3602 42.2972C57.9961 43.9696 57.522 45.6129 56.9209 47.2156Z" fill="white"/>
<path d="M57.0942 55.5361C58.7131 54.4424 60.2565 57.3532 58.4411 58.0128C56.9034 58.9038 55.562 56.3349 57.0942 55.5361Z" fill="white"/>
<path d="M59.5917 58.8805C59.5742 59.3954 59.5629 59.9162 59.5512 60.4311V60.4428C59.5512 60.5179 59.5454 60.5933 59.5454 60.6684C58.9614 60.7322 58.3777 60.7843 57.7937 60.8189L56.9439 60.738C57.5741 60.547 58.239 60.5183 58.898 60.4891H58.9385L59.0022 60.4833L59.0309 60.2056L59.0713 59.8757L59.1001 59.598L54.406 58.9559C56.1286 58.8863 57.8574 58.8634 59.5917 58.8809V58.8805Z" fill="white"/>
<path d="M59.0698 59.873L54.7748 59.7209L59.2598 60.2289L59.0698 59.873Z" fill="white"/>
<path d="M59.5572 60.9869L57.7938 60.8189L56.9439 60.738L54.3599 60.4891H58.9385L59.0023 60.4836L59.5513 60.4315V60.4428L59.5572 60.9869Z" fill="white"/>
<path d="M46.6209 41.2927C46.4999 41.3647 46.4248 41.4191 46.3437 41.4556C46.1727 41.5329 46.0727 41.4601 46.0844 41.2554C46.1101 40.8054 46.2871 40.4308 46.5895 40.1339C46.679 40.0458 46.7501 39.9553 46.7853 39.829C46.7991 39.7792 46.8164 39.7298 46.8396 39.6845C47.3909 38.6127 47.7848 37.4504 48.4149 36.4225C49.184 35.1676 50.0138 33.981 51.1419 33.0902C51.2154 33.0321 51.2494 32.9548 51.2773 32.8647C51.409 32.4414 51.563 32.0292 51.7865 31.6536C52.224 30.9178 52.8416 30.5042 53.6321 30.4329C54.1306 30.388 54.5763 30.5512 54.9258 30.9661C55.1455 31.2269 55.2505 31.5332 55.1716 31.8921C55.1508 31.9864 55.1731 32.0564 55.2134 32.1361C55.4422 32.5904 55.4702 33.0589 55.2791 33.5386C55.2404 33.6353 55.1851 33.7196 55.1156 33.7916C55.0785 33.8303 55.0452 33.8995 54.9905 33.8811C54.9302 33.8609 54.9487 33.7826 54.9468 33.7276C54.9421 33.6047 54.9176 33.4863 54.8862 33.3697C54.8746 33.3273 54.8698 33.267 54.8114 33.2817C54.7683 33.2925 54.7652 33.344 54.7718 33.3837C54.8331 33.7641 54.6973 34.1018 54.5885 34.4457C54.554 34.555 54.5169 34.6636 54.5206 34.783C54.5543 35.884 54.1781 36.8312 53.6189 37.7077C53.2515 38.2834 52.8074 38.784 52.3566 39.2779C52.1187 39.5386 51.8682 39.7872 51.6636 40.0834C51.5615 40.2314 51.4694 40.3863 51.426 40.5697C51.3801 40.7639 51.4276 40.8558 51.6045 40.8962C51.7834 40.9373 51.9613 40.9798 52.1432 41.0069C52.7011 41.0904 52.9576 41.7007 52.654 42.2224C52.6005 42.1706 52.6263 42.1041 52.6254 42.0481C52.6229 41.9147 52.5899 41.7964 52.5037 41.701C52.4783 41.6728 52.4503 41.6331 52.4117 41.6474C52.3658 41.6645 52.3837 41.7174 52.3849 41.7543C52.389 41.8942 52.3588 42.0195 52.2671 42.1198C52.1052 42.2962 51.7815 42.2945 51.6193 42.1173C51.6014 42.0975 51.575 42.0804 51.586 42.046C51.597 42.0115 51.6278 42.0174 51.6526 42.0146C51.6787 42.0115 51.7051 42.0139 51.7309 42.0098C51.8236 41.9944 51.9295 41.9917 51.9751 41.8834C52.0229 41.7703 51.9647 41.6697 51.9088 41.5767C51.7937 41.386 51.6881 41.5478 51.5879 41.5966C51.4757 41.6512 51.4885 41.7435 51.5646 41.8336C51.585 41.858 51.6161 41.8858 51.5897 41.9217C51.5684 41.9513 51.5325 41.9419 51.5011 41.9374C51.3751 41.9193 51.2673 41.8667 51.2088 41.7337C51.1503 41.6004 51.2003 41.4862 51.2704 41.3783C51.2886 41.3505 51.3088 41.3244 51.337 41.285C51.2242 41.2088 51.0997 41.2245 50.9863 41.1994C50.7147 41.1399 50.4721 41.0365 50.3297 40.7493C50.2822 40.6539 50.2021 40.6599 50.1232 40.6661C49.9044 40.6835 49.6873 40.727 49.4663 40.6797C49.3368 40.6519 49.2079 40.6223 49.0932 40.5516C49.0008 40.4949 48.948 40.5164 48.8823 40.6038C48.2751 41.4097 47.6713 42.2186 47.0512 43.0123C46.5065 43.7092 45.9539 44.4008 45.2829 44.9581C45.0597 45.1436 44.8209 45.2989 44.5531 45.3922C44.5081 45.4079 44.4465 45.458 44.4123 45.3939C44.3865 45.3459 44.4424 45.3013 44.4695 45.2613C45.2637 44.0813 45.9332 42.817 46.5326 41.5057C46.5561 41.45 46.5785 41.3929 46.6209 41.2927ZM54.1884 35.3274C54.167 34.8095 54.2563 34.3186 54.4594 33.847C54.5521 33.6318 54.5191 33.3924 54.4546 33.1658C54.4059 32.9945 54.36 32.8229 54.3308 32.6454C54.289 32.3912 54.377 32.2047 54.5624 32.0647C54.6011 32.0355 54.6448 32.0139 54.685 31.9875C54.861 31.8715 54.9082 31.7542 54.8585 31.5377C54.7652 31.1315 54.5024 30.9108 54.1554 30.8287C53.5237 30.679 52.9491 30.8447 52.4538 31.3041C52.0543 31.6745 51.8198 32.1674 51.6982 32.7174C51.6306 33.0234 51.5369 33.2726 51.2714 33.4331C51.128 33.5198 51.0183 33.674 50.9222 33.8278C50.8951 33.871 50.8568 33.9121 50.8612 33.9967C51.4889 33.5466 52.1426 33.4456 52.8224 33.745C53.4878 34.0377 53.9712 34.5376 54.1884 35.3274ZM47.2052 39.7666C47.275 39.9456 47.345 40.0107 47.5019 40.059C47.7417 40.1328 47.9812 40.1029 48.2166 40.0396C49.1935 39.7757 50.0597 39.2556 50.8709 38.6127C50.9831 38.524 51.096 38.4526 51.2317 38.4133C51.4873 38.3391 51.723 38.2089 51.9308 38.0283C52.5653 37.4765 52.9431 36.7414 53.1547 35.892C53.2634 35.4548 53.2961 35.011 53.183 34.5693C53.0283 33.966 52.3686 33.6628 51.8506 33.9716C51.9603 33.9716 52.0493 33.9625 52.136 33.9733C52.3651 34.0012 52.5628 34.0948 52.6716 34.3395C52.7049 34.4144 52.7187 34.4986 52.6647 34.5693C52.6059 34.6458 52.5405 34.5898 52.4777 34.5675C52.4465 34.5564 52.4192 34.5146 52.3768 34.5491C52.4164 34.7001 52.461 34.8502 52.4377 35.01C52.4249 35.0984 52.3991 35.1837 52.317 35.2202C52.2322 35.2581 52.1828 35.185 52.1281 35.1318C52.0911 35.0956 52.0618 35.0235 52.0015 35.0521C51.9399 35.0813 51.9459 35.1589 51.9446 35.2209C51.9421 35.3504 51.9289 35.4771 51.8688 35.5899C51.8057 35.7089 51.7114 35.7215 51.6212 35.6299C51.5542 35.5617 51.5272 35.4231 51.4181 35.4332C51.3188 35.4423 51.2839 35.5704 51.2151 35.6397C51.0875 35.7684 50.9831 35.7465 50.9077 35.5711C50.8668 35.476 50.859 35.3727 50.8477 35.2609C50.7939 35.3333 50.8024 35.411 50.8021 35.4841C50.8011 35.6442 50.842 35.789 50.9841 35.8586C51.1255 35.9279 51.2289 35.8315 51.3097 35.7211C51.3917 35.6094 51.4357 35.6595 51.5021 35.7389C51.6661 35.9359 51.8333 35.9108 51.9584 35.6804C52.0049 35.5947 52.0342 35.5004 52.0461 35.4029C52.059 35.2968 52.0885 35.2613 52.1882 35.3114C52.3073 35.3713 52.4007 35.317 52.4651 35.1948C52.5028 35.1231 52.5198 35.0458 52.5311 34.9644C52.543 34.8773 52.5339 34.7732 52.6754 34.8192C52.7514 34.8439 52.7762 34.7503 52.7766 34.6782C52.7769 34.5585 52.7681 34.4387 52.763 34.3155C52.8253 34.312 52.8482 34.3625 52.8771 34.4008C53.2747 34.924 53.1927 35.8332 52.6983 36.2426C52.5839 36.3372 52.5273 36.4448 52.4874 36.5872C52.3331 37.1385 52.0725 37.6151 51.6369 37.9493C51.36 38.1616 51.2035 38.0927 51.1063 37.7418C51.1048 37.7362 51.0903 37.7352 51.0796 37.731C50.9486 37.9548 50.8131 38.1762 50.6075 38.3276C50.4177 38.4676 50.2649 38.408 50.1986 38.1651C50.1713 38.0655 50.1634 37.959 50.1458 37.8487C50.0443 37.9482 49.9607 38.0457 49.8636 38.1219C49.6706 38.273 49.5131 38.2061 49.4427 37.9569C49.4003 37.8062 49.4157 37.6502 49.4119 37.4758C49.3217 37.6656 49.3022 37.8782 49.3456 38.0989C49.355 38.147 49.3953 38.2055 49.3462 38.242C49.3044 38.273 49.2567 38.2305 49.2152 38.2075C49.1589 38.1766 49.1074 38.1341 49.0492 38.1094C48.9923 38.085 48.9188 38.0554 48.8795 38.1313C48.8452 38.1978 48.8993 38.2528 48.9417 38.2939C49.0612 38.4094 49.2067 38.455 49.3616 38.4627C49.4726 38.4679 49.5838 38.4637 49.6951 38.4637C49.692 38.5299 49.6681 38.5431 49.6451 38.5563C49.2862 38.7652 48.9225 38.8668 48.5407 38.6218C48.4916 38.5904 48.4247 38.5494 48.3826 38.6092C48.3326 38.6803 48.3958 38.7394 48.4398 38.785C48.5347 38.8828 48.6544 38.9211 48.7792 38.9528C48.9181 38.988 49.0602 38.9692 49.2441 38.9709C49.1045 39.0966 48.9867 39.1432 48.871 39.1937C48.5526 39.3329 48.2348 39.3883 47.9187 39.1843C47.8919 39.1672 47.8602 39.1585 47.8297 39.1509C47.7879 39.1404 47.7442 39.1356 47.7169 39.1836C47.6898 39.2309 47.7112 39.2755 47.736 39.3124C47.8247 39.4426 47.9532 39.4892 48.0918 39.5049C48.3307 39.5317 48.562 39.4899 48.7852 39.3938C49.1702 39.2281 49.5166 38.9887 49.8237 38.6862C49.9582 38.5535 50.0698 38.4195 50.2514 38.588C50.2621 38.5978 50.2816 38.595 50.2967 38.5995C50.33 38.6096 50.3809 38.5922 50.391 38.6416C50.4026 38.6983 50.3473 38.7137 50.3165 38.7401C49.8702 39.1199 49.3937 39.4464 48.8763 39.6918C48.3411 39.9463 47.7958 40.1203 47.2052 39.7666ZM54.107 31.938C54.102 31.7222 53.9184 31.5297 53.7254 31.5381C53.5243 31.5468 53.364 31.7393 53.3709 31.9641C53.3778 32.1817 53.5435 32.3554 53.7405 32.3512C53.9448 32.3467 54.1124 32.158 54.107 31.938Z" fill="#329DA9"/>
</g>
<defs>
<clipPath id="clip0_3873_8717">
<rect width="92" height="95" fill="white"/>
</clipPath>
</defs>
</svg>
