<svg width="17" height="17" viewBox="0 0 17 17" fill="none" xmlns="http://www.w3.org/2000/svg">
<path d="M13.1666 3.8335L9.56663 7.4335M13.1666 3.8335H9.83331M13.1666 3.8335L13.1666 7.16683M3.83331 9.8335C3.83331 10.7176 4.1845 11.5654 4.80962 12.1905C5.43475 12.8156 6.28259 13.1668 7.16665 13.1668C8.0507 13.1668 8.89855 12.8156 9.52367 12.1905C10.1488 11.5654 10.5 10.7176 10.5 9.8335C10.5 8.94944 10.1488 8.10159 9.52367 7.47647C8.89855 6.85135 8.0507 6.50016 7.16665 6.50016C6.28259 6.50016 5.43475 6.85135 4.80962 7.47647C4.1845 8.10159 3.83331 8.94944 3.83331 9.8335Z" stroke="#329DA9" stroke-width="1.33333" stroke-linecap="round" stroke-linejoin="round"/>
</svg>
