<svg width="25" height="24" viewBox="0 0 25 24" fill="none" xmlns="http://www.w3.org/2000/svg">
<path d="M7.104 3.07401C7.98906 2.92321 8.89669 2.97296 9.75996 3.21958C10.6232 3.46621 11.4202 3.90343 12.092 4.49901L12.129 4.53201L12.163 4.50201C12.8042 3.93931 13.558 3.51981 14.3742 3.27149C15.1903 3.02318 16.0501 2.95177 16.896 3.06201L17.142 3.09801C18.2083 3.28212 19.205 3.75117 20.0265 4.45548C20.848 5.1598 21.4637 6.07316 21.8084 7.09885C22.1532 8.12454 22.2142 9.22437 21.9849 10.2819C21.7556 11.3394 21.2446 12.3152 20.506 13.106L20.326 13.291L20.278 13.332L12.828 20.711C12.6561 20.8812 12.4283 20.9832 12.1869 20.9983C11.9455 21.0134 11.7068 20.9405 11.515 20.793L11.421 20.711L3.928 13.289C3.13422 12.5167 2.5697 11.5397 2.29696 10.4663C2.02422 9.39287 2.0539 8.26491 2.38272 7.20733C2.71154 6.14974 3.32666 5.20381 4.15996 4.47428C4.99326 3.74476 6.01223 3.26011 7.104 3.07401Z" fill="#DF1C41"/>
</svg>
