<svg width="17" height="17" viewBox="0 0 17 17" fill="none" xmlns="http://www.w3.org/2000/svg">
<path d="M6.125 7.83314C6.125 8.36357 6.33571 8.87228 6.71079 9.24735C7.08586 9.62243 7.59457 9.83314 8.125 9.83314C8.65543 9.83314 9.16414 9.62243 9.53921 9.24735C9.91429 8.87228 10.125 8.36357 10.125 7.83314C10.125 7.30271 9.91429 6.794 9.53921 6.41893C9.16414 6.04385 8.65543 5.83314 8.125 5.83314C7.59457 5.83314 7.08586 6.04385 6.71079 6.41893C6.33571 6.794 6.125 7.30271 6.125 7.83314Z" stroke="#329DA9" stroke-width="1.33333" stroke-linecap="round" stroke-linejoin="round"/>
<path d="M11.8963 11.6045L9.06767 14.4331C8.81766 14.6829 8.47872 14.8232 8.12534 14.8232C7.77195 14.8232 7.43301 14.6829 7.183 14.4331L4.35367 11.6045C3.60782 10.8586 3.09989 9.90827 2.89413 8.87371C2.68836 7.83916 2.794 6.76681 3.19767 5.79229C3.60135 4.81777 4.28493 3.98483 5.16199 3.39881C6.03905 2.81279 7.07018 2.5 8.125 2.5C9.17982 2.5 10.211 2.81279 11.088 3.39881C11.9651 3.98483 12.6487 4.81777 13.0523 5.79229C13.456 6.76681 13.5616 7.83916 13.3559 8.87371C13.1501 9.90827 12.6422 10.8586 11.8963 11.6045Z" stroke="#329DA9" stroke-width="1.33333" stroke-linecap="round" stroke-linejoin="round"/>
</svg>
