<svg width="25" height="24" viewBox="0 0 25 24" fill="none" xmlns="http://www.w3.org/2000/svg">
<path d="M8.125 9H16.125M8.125 13H14.125M18.125 4C18.9206 4 19.6837 4.31607 20.2463 4.87868C20.8089 5.44129 21.125 6.20435 21.125 7V15C21.125 15.7956 20.8089 16.5587 20.2463 17.1213C19.6837 17.6839 18.9206 18 18.125 18H13.125L8.125 21V18H6.125C5.32935 18 4.56629 17.6839 4.00368 17.1213C3.44107 16.5587 3.125 15.7956 3.125 15V7C3.125 6.20435 3.44107 5.44129 4.00368 4.87868C4.56629 4.31607 5.32935 4 6.125 4H18.125Z" stroke="#0D0D12" stroke-width="2" stroke-linecap="round" stroke-linejoin="round"/>
</svg>
