<svg width="25" height="24" viewBox="0 0 25 24" fill="none" xmlns="http://www.w3.org/2000/svg">
<path d="M8.825 10.7L15.425 7.29999M8.825 13.3L15.425 16.7M3.125 12C3.125 12.7956 3.44107 13.5587 4.00368 14.1213C4.56629 14.6839 5.32935 15 6.125 15C6.92065 15 7.68371 14.6839 8.24632 14.1213C8.80893 13.5587 9.125 12.7956 9.125 12C9.125 11.2044 8.80893 10.4413 8.24632 9.87868C7.68371 9.31607 6.92065 9 6.125 9C5.32935 9 4.56629 9.31607 4.00368 9.87868C3.44107 10.4413 3.125 11.2044 3.125 12ZM15.125 6C15.125 6.79565 15.4411 7.55871 16.0037 8.12132C16.5663 8.68393 17.3294 9 18.125 9C18.9206 9 19.6837 8.68393 20.2463 8.12132C20.8089 7.55871 21.125 6.79565 21.125 6C21.125 5.20435 20.8089 4.44129 20.2463 3.87868C19.6837 3.31607 18.9206 3 18.125 3C17.3294 3 16.5663 3.31607 16.0037 3.87868C15.4411 4.44129 15.125 5.20435 15.125 6ZM15.125 18C15.125 18.7956 15.4411 19.5587 16.0037 20.1213C16.5663 20.6839 17.3294 21 18.125 21C18.9206 21 19.6837 20.6839 20.2463 20.1213C20.8089 19.5587 21.125 18.7956 21.125 18C21.125 17.2044 20.8089 16.4413 20.2463 15.8787C19.6837 15.3161 18.9206 15 18.125 15C17.3294 15 16.5663 15.3161 16.0037 15.8787C15.4411 16.4413 15.125 17.2044 15.125 18Z" stroke="#0D0D12" stroke-width="2" stroke-linecap="round" stroke-linejoin="round"/>
</svg>
