<svg aria-hidden="true" style="position: absolute; width: 0; height: 0; overflow: hidden;" version="1.1" xmlns="http://www.w3.org/2000/svg" xmlns:xlink="http://www.w3.org/1999/xlink">
<defs>
<symbol id="icon-user" viewBox="0 0 33 32">
<path stroke-linejoin="round" stroke-linecap="round" stroke-miterlimit="4" stroke-width="2.6667" d="M8.933 28v-2.667c0-1.415 0.562-2.771 1.562-3.771s2.357-1.562 3.771-1.562h5.333c1.415 0 2.771 0.562 3.771 1.562s1.562 2.357 1.562 3.771v2.667M11.6 9.333c0 1.415 0.562 2.771 1.562 3.771s2.357 1.562 3.771 1.562 2.771-0.562 3.771-1.562c1-1 1.562-2.357 1.562-3.771s-0.562-2.771-1.562-3.771c-1-1-2.357-1.562-3.771-1.562s-2.771 0.562-3.771 1.562c-1 1-1.562 2.357-1.562 3.771z"></path>
</symbol>
<symbol id="icon-heart-handshake" viewBox="0 0 33 32">
<path stroke-linejoin="round" stroke-linecap="round" stroke-miterlimit="4" stroke-width="2.6667" d="M27.2 16.763l-10 9.904-10-9.904c-0.66-0.642-1.179-1.413-1.526-2.266s-0.513-1.768-0.489-2.688 0.239-1.825 0.63-2.658c0.391-0.833 0.951-1.576 1.643-2.182s1.503-1.063 2.38-1.34c0.877-0.278 1.803-0.371 2.718-0.273s1.8 0.384 2.599 0.84 1.495 1.073 2.044 1.812c0.551-0.733 1.248-1.345 2.047-1.797s1.682-0.734 2.594-0.828c0.913-0.095 1.835 0 2.709 0.279s1.682 0.734 2.372 1.339c0.69 0.605 1.248 1.345 1.638 2.175s0.606 1.732 0.632 2.649c0.026 0.917-0.137 1.83-0.48 2.681s-0.858 1.622-1.512 2.265M17.199 8l-4.391 4.391c-0.25 0.25-0.39 0.589-0.39 0.943s0.14 0.693 0.39 0.943l0.724 0.724c0.92 0.92 2.413 0.92 3.333 0l1.333-1.333c0.796-0.796 1.875-1.243 3-1.243s2.204 0.447 3 1.243l3 3M17.866 20.667l2.667 2.667M21.2 17.333l2.667 2.667"></path>
</symbol>
<symbol id="icon-bookmark" viewBox="0 0 33 32">
<path stroke-linejoin="round" stroke-linecap="round" stroke-miterlimit="4" stroke-width="2.6667" d="M12.133 5.333h8c0.707 0 1.385 0.281 1.886 0.781s0.781 1.178 0.781 1.886v18.667l-6.667-4-6.667 4v-18.667c0-0.707 0.281-1.386 0.781-1.886s1.178-0.781 1.886-0.781z"></path>
</symbol>
<symbol id="icon-home" viewBox="0 0 33 32">
<path stroke-linejoin="round" stroke-linecap="round" stroke-miterlimit="4" stroke-width="2.6667" d="M12.4 28v-8c0-0.707 0.281-1.385 0.781-1.886s1.178-0.781 1.886-0.781h2.667c0.707 0 1.385 0.281 1.886 0.781s0.781 1.178 0.781 1.886v8M7.066 16h-2.667l12-12 12 12h-2.667v9.333c0 0.707-0.281 1.385-0.781 1.886s-1.178 0.781-1.886 0.781h-13.333c-0.707 0-1.386-0.281-1.886-0.781s-0.781-1.178-0.781-1.886v-9.333z"></path>
</symbol>
<symbol id="icon-message-2" viewBox="0 0 33 32">
<path stroke-linejoin="round" stroke-linecap="round" stroke-miterlimit="4" stroke-width="2.6667" d="M11.333 12h10.667M11.333 17.333h8M12.667 24h-4c-1.061 0-2.078-0.421-2.828-1.172s-1.172-1.768-1.172-2.828v-10.667c0-1.061 0.421-2.078 1.172-2.828s1.768-1.172 2.828-1.172h16c1.061 0 2.078 0.421 2.828 1.172s1.172 1.768 1.172 2.828v10.667c0 1.061-0.421 2.078-1.172 2.828s-1.768 1.172-2.828 1.172h-4l-4 4-4-4z"></path>
</symbol>
</defs>
</svg>
